# xmcd
#
# Track frame offsets:
#	150
#	22257
#	43327
#	65167
#	85192
#	105730
#	123250
#	144237
#	155065
#	171935
#
# Disc length: 2482 seconds
# Revision: 0
# Processed by: cddbd v1.5.2PL0 Copyright (c) Steve Scherf et al.
# Submitted via: dBpowerAMP V12.0
#
DISCID=8f09b00a
DTITLE=Various Artist - Blue Lights in the Basement
DYEAR=1977
DGENRE=Soul and R&B
TTITLE0=Roberta Flack - Why Don't You Move in With Me
TTITLE1=Roberta Flack, Donny Hathaway - The Closer I Get to You
TTITLE2=Roberta Flack - Fine, Fine Day
TTITLE3=Roberta Flack - This Time I'll Be Sweeter
TTITLE4=Roberta Flack - 25th of Last December
TTITLE5=Roberta Flack - After You
TTITLE6=Roberta Flack - I'd Like to Be Baby to You
TTITLE7=Roberta Flack - Soul Deep
TTITLE8=Roberta Flack - Love is the Healing
TTITLE9=Roberta Flack - Where I'll Find You
EXTD=
EXTT0=
EXTT1=
EXTT2=
EXTT3=
EXTT4=
EXTT5=
EXTT6=
EXTT7=
EXTT8=
EXTT9=
PLAYORDER=
